<?xml version="1.0" standalone="no"?><!DOCTYPE svg PUBLIC "-//W3C//DTD SVG 1.1//EN" "http://www.w3.org/Graphics/SVG/1.1/DTD/svg11.dtd"><svg t="1766889548431" class="icon" viewBox="0 0 1024 1024" version="1.1" xmlns="http://www.w3.org/2000/svg" p-id="3856" width="32" height="32" xmlns:xlink="http://www.w3.org/1999/xlink"><path d="M864.91702361 953.26926064H237.40254183c-48.68758439 0-88.14511091-39.4704719-88.14511092-88.14511091V171.91185067c0-48.68758439 39.4704719-88.14511091 88.14511092-88.14511092h627.51448178c48.68758439 0 88.14511091 39.4704719 88.14511091 88.14511092v693.21229906c0 48.67463902-39.45752652 88.14511091-88.14511091 88.14511091z" fill="#FD9CAD" p-id="3857"></path><path d="M786.83047506 953.26926064H159.31599328c-48.68758439 0-88.14511091-39.4704719-88.14511091-88.14511091V171.91185067c0-48.68758439 39.4704719-88.14511091 88.14511091-88.14511092H786.83047506c48.68758439 0 88.14511091 39.4704719 88.14511091 88.14511092v693.21229906c0 48.67463902-39.45752652 88.14511091-88.14511091 88.14511091z" fill="#FB5A5F" p-id="3858"></path><path d="M372.83713581 681.9469843l-59.97595812-59.97595813 307.31044028-307.3104403c0.9061768-0.9061768 2.36900503-0.9061768 3.27518184 0l56.68783091 56.68783093c0.9061768 0.9061768 0.9061768 2.36900503 0 3.27518181L372.83713581 681.9469843zM281.93465837 712.88644898l12.60880277-72.58476088 59.96301273 59.96301273z" fill="#FFFFFF" p-id="3859"></path></svg>